<mxfile host="Electron" modified="2023-06-07T20:41:04.756Z" agent="Mozilla/5.0 (Windows NT 10.0; Win64; x64) AppleWebKit/537.36 (KHTML, like Gecko) draw.io/21.2.8 Chrome/112.0.5615.165 Electron/24.2.0 Safari/537.36" etag="mpTPCEeyG7OHx2SC0md_" version="21.2.8" type="device">
  <diagram name="Page-1" id="deFLNfpETDlmj1eSi1Iw">
    <mxGraphModel dx="2734" dy="2202" grid="1" gridSize="10" guides="1" tooltips="1" connect="1" arrows="1" fold="1" page="1" pageScale="1" pageWidth="850" pageHeight="1100" math="0" shadow="0">
      <root>
        <mxCell id="0" />
        <mxCell id="1" parent="0" />
        <mxCell id="Rp4w2FqZeHLNgpuGs2a2-1" value="USER" style="rounded=1;arcSize=10;whiteSpace=wrap;html=1;align=center;" parent="1" vertex="1">
          <mxGeometry x="-30" y="260" width="100" height="40" as="geometry" />
        </mxCell>
        <mxCell id="Rp4w2FqZeHLNgpuGs2a2-2" value="ADMIN" style="rounded=1;arcSize=10;whiteSpace=wrap;html=1;align=center;" parent="1" vertex="1">
          <mxGeometry x="300" y="570" width="100" height="40" as="geometry" />
        </mxCell>
        <mxCell id="Rp4w2FqZeHLNgpuGs2a2-3" value="INSTRUCTOR" style="rounded=1;arcSize=10;whiteSpace=wrap;html=1;align=center;" parent="1" vertex="1">
          <mxGeometry x="310" y="260" width="100" height="40" as="geometry" />
        </mxCell>
        <mxCell id="Rp4w2FqZeHLNgpuGs2a2-4" value="STUDENT" style="rounded=1;arcSize=10;whiteSpace=wrap;html=1;align=center;" parent="1" vertex="1">
          <mxGeometry x="290" y="20" width="100" height="40" as="geometry" />
        </mxCell>
        <mxCell id="Rp4w2FqZeHLNgpuGs2a2-6" value="IS" style="shape=rhombus;perimeter=rhombusPerimeter;whiteSpace=wrap;html=1;align=center;" parent="1" vertex="1">
          <mxGeometry x="120" y="10" width="120" height="60" as="geometry" />
        </mxCell>
        <mxCell id="Rp4w2FqZeHLNgpuGs2a2-7" value="IS" style="shape=rhombus;perimeter=rhombusPerimeter;whiteSpace=wrap;html=1;align=center;" parent="1" vertex="1">
          <mxGeometry x="130" y="560" width="120" height="60" as="geometry" />
        </mxCell>
        <mxCell id="Rp4w2FqZeHLNgpuGs2a2-8" value="IS" style="shape=rhombus;perimeter=rhombusPerimeter;whiteSpace=wrap;html=1;align=center;" parent="1" vertex="1">
          <mxGeometry x="140" y="250" width="120" height="60" as="geometry" />
        </mxCell>
        <mxCell id="Rp4w2FqZeHLNgpuGs2a2-9" value="" style="endArrow=none;html=1;rounded=0;exitX=1;exitY=0.5;exitDx=0;exitDy=0;entryX=0;entryY=0.5;entryDx=0;entryDy=0;" parent="1" source="Rp4w2FqZeHLNgpuGs2a2-1" target="Rp4w2FqZeHLNgpuGs2a2-8" edge="1">
          <mxGeometry relative="1" as="geometry">
            <mxPoint x="340" y="310" as="sourcePoint" />
            <mxPoint x="500" y="310" as="targetPoint" />
          </mxGeometry>
        </mxCell>
        <mxCell id="Rp4w2FqZeHLNgpuGs2a2-10" value="" style="endArrow=none;html=1;rounded=0;entryX=0;entryY=0.5;entryDx=0;entryDy=0;exitX=0.993;exitY=0.946;exitDx=0;exitDy=0;exitPerimeter=0;" parent="1" source="Rp4w2FqZeHLNgpuGs2a2-1" target="Rp4w2FqZeHLNgpuGs2a2-7" edge="1">
          <mxGeometry relative="1" as="geometry">
            <mxPoint x="70" y="310" as="sourcePoint" />
            <mxPoint x="500" y="310" as="targetPoint" />
          </mxGeometry>
        </mxCell>
        <mxCell id="Rp4w2FqZeHLNgpuGs2a2-11" value="" style="endArrow=none;html=1;rounded=0;entryX=0;entryY=0.5;entryDx=0;entryDy=0;exitX=0.982;exitY=0.04;exitDx=0;exitDy=0;exitPerimeter=0;" parent="1" source="Rp4w2FqZeHLNgpuGs2a2-1" target="Rp4w2FqZeHLNgpuGs2a2-6" edge="1">
          <mxGeometry relative="1" as="geometry">
            <mxPoint x="80" y="250" as="sourcePoint" />
            <mxPoint x="500" y="310" as="targetPoint" />
          </mxGeometry>
        </mxCell>
        <mxCell id="Rp4w2FqZeHLNgpuGs2a2-15" value="1" style="text;strokeColor=none;fillColor=none;spacingLeft=4;spacingRight=4;overflow=hidden;rotatable=0;points=[[0,0.5],[1,0.5]];portConstraint=eastwest;fontSize=12;whiteSpace=wrap;html=1;" parent="1" vertex="1">
          <mxGeometry x="70" y="260" width="40" height="30" as="geometry" />
        </mxCell>
        <mxCell id="Rp4w2FqZeHLNgpuGs2a2-16" value="1" style="text;strokeColor=none;fillColor=none;spacingLeft=4;spacingRight=4;overflow=hidden;rotatable=0;points=[[0,0.5],[1,0.5]];portConstraint=eastwest;fontSize=12;whiteSpace=wrap;html=1;" parent="1" vertex="1">
          <mxGeometry x="70" y="290" width="40" height="30" as="geometry" />
        </mxCell>
        <mxCell id="Rp4w2FqZeHLNgpuGs2a2-17" value="1" style="text;strokeColor=none;fillColor=none;spacingLeft=4;spacingRight=4;overflow=hidden;rotatable=0;points=[[0,0.5],[1,0.5]];portConstraint=eastwest;fontSize=12;whiteSpace=wrap;html=1;" parent="1" vertex="1">
          <mxGeometry x="60" y="230" width="40" height="30" as="geometry" />
        </mxCell>
        <mxCell id="Rp4w2FqZeHLNgpuGs2a2-19" value="1" style="text;strokeColor=none;fillColor=none;spacingLeft=4;spacingRight=4;overflow=hidden;rotatable=0;points=[[0,0.5],[1,0.5]];portConstraint=eastwest;fontSize=12;whiteSpace=wrap;html=1;" parent="1" vertex="1">
          <mxGeometry x="270" y="20" width="40" height="30" as="geometry" />
        </mxCell>
        <mxCell id="Rp4w2FqZeHLNgpuGs2a2-20" value="1" style="text;strokeColor=none;fillColor=none;spacingLeft=4;spacingRight=4;overflow=hidden;rotatable=0;points=[[0,0.5],[1,0.5]];portConstraint=eastwest;fontSize=12;whiteSpace=wrap;html=1;" parent="1" vertex="1">
          <mxGeometry x="290" y="260" width="40" height="30" as="geometry" />
        </mxCell>
        <mxCell id="Rp4w2FqZeHLNgpuGs2a2-21" value="1" style="text;strokeColor=none;fillColor=none;spacingLeft=4;spacingRight=4;overflow=hidden;rotatable=0;points=[[0,0.5],[1,0.5]];portConstraint=eastwest;fontSize=12;whiteSpace=wrap;html=1;" parent="1" vertex="1">
          <mxGeometry x="280" y="570" width="40" height="30" as="geometry" />
        </mxCell>
        <mxCell id="Rp4w2FqZeHLNgpuGs2a2-23" value="NAME" style="ellipse;whiteSpace=wrap;html=1;align=center;" parent="1" vertex="1">
          <mxGeometry x="-170" y="190" width="100" height="40" as="geometry" />
        </mxCell>
        <mxCell id="Rp4w2FqZeHLNgpuGs2a2-24" value="SURNAME" style="ellipse;whiteSpace=wrap;html=1;align=center;" parent="1" vertex="1">
          <mxGeometry x="-170" y="230" width="100" height="40" as="geometry" />
        </mxCell>
        <mxCell id="Rp4w2FqZeHLNgpuGs2a2-25" value="PASSWORD" style="ellipse;whiteSpace=wrap;html=1;align=center;" parent="1" vertex="1">
          <mxGeometry x="-170" y="270" width="100" height="40" as="geometry" />
        </mxCell>
        <mxCell id="Rp4w2FqZeHLNgpuGs2a2-26" value="USER-NAME" style="ellipse;whiteSpace=wrap;html=1;align=center;" parent="1" vertex="1">
          <mxGeometry x="-170" y="310" width="100" height="40" as="geometry" />
        </mxCell>
        <mxCell id="Rp4w2FqZeHLNgpuGs2a2-29" value="ID" style="ellipse;whiteSpace=wrap;html=1;align=center;fontStyle=4;" parent="1" vertex="1">
          <mxGeometry x="-170" y="390" width="100" height="40" as="geometry" />
        </mxCell>
        <mxCell id="Rp4w2FqZeHLNgpuGs2a2-38" style="edgeStyle=orthogonalEdgeStyle;rounded=0;orthogonalLoop=1;jettySize=auto;html=1;" parent="1" source="Rp4w2FqZeHLNgpuGs2a2-30" target="Rp4w2FqZeHLNgpuGs2a2-37" edge="1">
          <mxGeometry relative="1" as="geometry" />
        </mxCell>
        <mxCell id="Rp4w2FqZeHLNgpuGs2a2-30" value="TYPE" style="ellipse;whiteSpace=wrap;html=1;align=center;" parent="1" vertex="1">
          <mxGeometry x="-170" y="150" width="100" height="40" as="geometry" />
        </mxCell>
        <mxCell id="Rp4w2FqZeHLNgpuGs2a2-31" value="" style="endArrow=none;html=1;rounded=0;exitX=1;exitY=0.5;exitDx=0;exitDy=0;entryX=0.001;entryY=0.677;entryDx=0;entryDy=0;entryPerimeter=0;" parent="1" source="Rp4w2FqZeHLNgpuGs2a2-25" target="Rp4w2FqZeHLNgpuGs2a2-1" edge="1">
          <mxGeometry relative="1" as="geometry">
            <mxPoint x="-40" y="280" as="sourcePoint" />
            <mxPoint x="120" y="280" as="targetPoint" />
          </mxGeometry>
        </mxCell>
        <mxCell id="Rp4w2FqZeHLNgpuGs2a2-32" value="" style="endArrow=none;html=1;rounded=0;exitX=1;exitY=0.5;exitDx=0;exitDy=0;entryX=0.002;entryY=0.918;entryDx=0;entryDy=0;entryPerimeter=0;" parent="1" source="Rp4w2FqZeHLNgpuGs2a2-26" target="Rp4w2FqZeHLNgpuGs2a2-1" edge="1">
          <mxGeometry relative="1" as="geometry">
            <mxPoint x="-40" y="280" as="sourcePoint" />
            <mxPoint x="-40" y="300" as="targetPoint" />
          </mxGeometry>
        </mxCell>
        <mxCell id="Rp4w2FqZeHLNgpuGs2a2-33" value="" style="endArrow=none;html=1;rounded=0;exitX=1;exitY=0.5;exitDx=0;exitDy=0;entryX=-0.002;entryY=0.114;entryDx=0;entryDy=0;entryPerimeter=0;" parent="1" source="Rp4w2FqZeHLNgpuGs2a2-24" target="Rp4w2FqZeHLNgpuGs2a2-1" edge="1">
          <mxGeometry relative="1" as="geometry">
            <mxPoint x="-40" y="280" as="sourcePoint" />
            <mxPoint x="120" y="280" as="targetPoint" />
          </mxGeometry>
        </mxCell>
        <mxCell id="Rp4w2FqZeHLNgpuGs2a2-34" value="" style="endArrow=none;html=1;rounded=0;exitX=0.998;exitY=0.38;exitDx=0;exitDy=0;exitPerimeter=0;entryX=0.158;entryY=1.001;entryDx=0;entryDy=0;entryPerimeter=0;" parent="1" source="Rp4w2FqZeHLNgpuGs2a2-29" target="Rp4w2FqZeHLNgpuGs2a2-1" edge="1">
          <mxGeometry relative="1" as="geometry">
            <mxPoint x="-40" y="280" as="sourcePoint" />
            <mxPoint x="120" y="280" as="targetPoint" />
          </mxGeometry>
        </mxCell>
        <mxCell id="Rp4w2FqZeHLNgpuGs2a2-35" value="" style="endArrow=none;html=1;rounded=0;exitX=0.986;exitY=0.599;exitDx=0;exitDy=0;exitPerimeter=0;entryX=0.12;entryY=-0.006;entryDx=0;entryDy=0;entryPerimeter=0;" parent="1" source="Rp4w2FqZeHLNgpuGs2a2-23" target="Rp4w2FqZeHLNgpuGs2a2-1" edge="1">
          <mxGeometry relative="1" as="geometry">
            <mxPoint x="-40" y="280" as="sourcePoint" />
            <mxPoint x="120" y="280" as="targetPoint" />
          </mxGeometry>
        </mxCell>
        <mxCell id="Rp4w2FqZeHLNgpuGs2a2-36" value="" style="endArrow=none;html=1;rounded=0;exitX=0.956;exitY=0.761;exitDx=0;exitDy=0;exitPerimeter=0;entryX=0.25;entryY=0;entryDx=0;entryDy=0;" parent="1" source="Rp4w2FqZeHLNgpuGs2a2-30" target="Rp4w2FqZeHLNgpuGs2a2-1" edge="1">
          <mxGeometry relative="1" as="geometry">
            <mxPoint x="-40" y="280" as="sourcePoint" />
            <mxPoint x="120" y="280" as="targetPoint" />
          </mxGeometry>
        </mxCell>
        <mxCell id="Rp4w2FqZeHLNgpuGs2a2-37" value="CHOISE :&lt;br&gt;1. STUDENT&lt;br&gt;2. INSTRUCTOR&lt;br&gt;3. ADMIN" style="shape=note;size=20;whiteSpace=wrap;html=1;" parent="1" vertex="1">
          <mxGeometry x="-330" y="120" width="100" height="100" as="geometry" />
        </mxCell>
        <mxCell id="Rp4w2FqZeHLNgpuGs2a2-42" value="SCHOOL" style="ellipse;whiteSpace=wrap;html=1;align=center;" parent="1" vertex="1">
          <mxGeometry x="360" y="-130" width="100" height="40" as="geometry" />
        </mxCell>
        <mxCell id="Rp4w2FqZeHLNgpuGs2a2-44" value="&lt;span style=&quot;border-bottom: 1px dotted&quot;&gt;INSTRUCTOR-ID&lt;/span&gt;" style="ellipse;whiteSpace=wrap;html=1;align=center;" parent="1" vertex="1">
          <mxGeometry x="150" y="-130" width="110" height="40" as="geometry" />
        </mxCell>
        <mxCell id="Rp4w2FqZeHLNgpuGs2a2-46" value="ID" style="ellipse;whiteSpace=wrap;html=1;align=center;fontStyle=4;" parent="1" vertex="1">
          <mxGeometry x="50" y="-130" width="100" height="40" as="geometry" />
        </mxCell>
        <mxCell id="Rp4w2FqZeHLNgpuGs2a2-47" value="" style="endArrow=none;html=1;rounded=0;exitX=1;exitY=1;exitDx=0;exitDy=0;entryX=0;entryY=0;entryDx=0;entryDy=0;" parent="1" source="Rp4w2FqZeHLNgpuGs2a2-46" target="Rp4w2FqZeHLNgpuGs2a2-4" edge="1">
          <mxGeometry relative="1" as="geometry">
            <mxPoint x="100" y="-90" as="sourcePoint" />
            <mxPoint x="390" y="120" as="targetPoint" />
          </mxGeometry>
        </mxCell>
        <mxCell id="Rp4w2FqZeHLNgpuGs2a2-49" value="" style="endArrow=none;html=1;rounded=0;exitX=0.5;exitY=1;exitDx=0;exitDy=0;entryX=0.5;entryY=0;entryDx=0;entryDy=0;" parent="1" source="Rp4w2FqZeHLNgpuGs2a2-42" target="Rp4w2FqZeHLNgpuGs2a2-4" edge="1">
          <mxGeometry relative="1" as="geometry">
            <mxPoint x="230" y="120" as="sourcePoint" />
            <mxPoint x="390" y="120" as="targetPoint" />
          </mxGeometry>
        </mxCell>
        <mxCell id="Rp4w2FqZeHLNgpuGs2a2-51" value="" style="endArrow=none;html=1;rounded=0;exitX=0;exitY=1;exitDx=0;exitDy=0;entryX=0.25;entryY=0;entryDx=0;entryDy=0;" parent="1" source="Rp4w2FqZeHLNgpuGs2a2-44" target="Rp4w2FqZeHLNgpuGs2a2-4" edge="1">
          <mxGeometry relative="1" as="geometry">
            <mxPoint x="230" y="120" as="sourcePoint" />
            <mxPoint x="390" y="120" as="targetPoint" />
          </mxGeometry>
        </mxCell>
        <mxCell id="Rp4w2FqZeHLNgpuGs2a2-52" value="TEACH" style="shape=rhombus;perimeter=rhombusPerimeter;whiteSpace=wrap;html=1;align=center;" parent="1" vertex="1">
          <mxGeometry x="317.5" y="130" width="85" height="40" as="geometry" />
        </mxCell>
        <mxCell id="Rp4w2FqZeHLNgpuGs2a2-55" value="" style="shape=link;html=1;rounded=0;exitX=1;exitY=0.5;exitDx=0;exitDy=0;entryX=0;entryY=0.5;entryDx=0;entryDy=0;" parent="1" source="Rp4w2FqZeHLNgpuGs2a2-8" target="Rp4w2FqZeHLNgpuGs2a2-3" edge="1">
          <mxGeometry relative="1" as="geometry">
            <mxPoint x="250" y="260" as="sourcePoint" />
            <mxPoint x="410" y="260" as="targetPoint" />
          </mxGeometry>
        </mxCell>
        <mxCell id="Rp4w2FqZeHLNgpuGs2a2-57" value="" style="shape=link;html=1;rounded=0;exitX=1;exitY=0.5;exitDx=0;exitDy=0;entryX=0;entryY=0.5;entryDx=0;entryDy=0;" parent="1" source="Rp4w2FqZeHLNgpuGs2a2-7" target="Rp4w2FqZeHLNgpuGs2a2-2" edge="1">
          <mxGeometry relative="1" as="geometry">
            <mxPoint x="240" y="390" as="sourcePoint" />
            <mxPoint x="400" y="390" as="targetPoint" />
          </mxGeometry>
        </mxCell>
        <mxCell id="Rp4w2FqZeHLNgpuGs2a2-59" value="" style="shape=link;html=1;rounded=0;exitX=1;exitY=0.5;exitDx=0;exitDy=0;" parent="1" source="Rp4w2FqZeHLNgpuGs2a2-6" target="Rp4w2FqZeHLNgpuGs2a2-4" edge="1">
          <mxGeometry relative="1" as="geometry">
            <mxPoint x="230" y="170" as="sourcePoint" />
            <mxPoint x="390" y="170" as="targetPoint" />
          </mxGeometry>
        </mxCell>
        <mxCell id="Rp4w2FqZeHLNgpuGs2a2-67" value="" style="endArrow=none;html=1;rounded=0;entryX=0.5;entryY=1;entryDx=0;entryDy=0;exitX=0.5;exitY=0;exitDx=0;exitDy=0;" parent="1" source="Rp4w2FqZeHLNgpuGs2a2-52" target="Rp4w2FqZeHLNgpuGs2a2-4" edge="1">
          <mxGeometry relative="1" as="geometry">
            <mxPoint x="339.99999999999955" y="90" as="sourcePoint" />
            <mxPoint x="270" y="90" as="targetPoint" />
          </mxGeometry>
        </mxCell>
        <mxCell id="Rp4w2FqZeHLNgpuGs2a2-68" value="N" style="resizable=0;html=1;whiteSpace=wrap;align=right;verticalAlign=bottom;" parent="Rp4w2FqZeHLNgpuGs2a2-67" connectable="0" vertex="1">
          <mxGeometry x="1" relative="1" as="geometry">
            <mxPoint x="-10" y="20" as="offset" />
          </mxGeometry>
        </mxCell>
        <mxCell id="Rp4w2FqZeHLNgpuGs2a2-69" value="" style="shape=link;html=1;rounded=0;entryX=0.5;entryY=1;entryDx=0;entryDy=0;exitX=0.5;exitY=0;exitDx=0;exitDy=0;" parent="1" source="Rp4w2FqZeHLNgpuGs2a2-3" target="Rp4w2FqZeHLNgpuGs2a2-52" edge="1">
          <mxGeometry relative="1" as="geometry">
            <mxPoint x="240" y="180" as="sourcePoint" />
            <mxPoint x="400" y="180" as="targetPoint" />
          </mxGeometry>
        </mxCell>
        <mxCell id="Rp4w2FqZeHLNgpuGs2a2-70" value="M" style="resizable=0;html=1;whiteSpace=wrap;align=left;verticalAlign=bottom;" parent="Rp4w2FqZeHLNgpuGs2a2-69" connectable="0" vertex="1">
          <mxGeometry x="-1" relative="1" as="geometry">
            <mxPoint x="-20" as="offset" />
          </mxGeometry>
        </mxCell>
        <mxCell id="Rp4w2FqZeHLNgpuGs2a2-72" value="Relationship" style="shape=rhombus;perimeter=rhombusPerimeter;whiteSpace=wrap;html=1;align=center;" parent="1" vertex="1">
          <mxGeometry x="480" y="-140" width="120" height="60" as="geometry" />
        </mxCell>
        <mxCell id="Rp4w2FqZeHLNgpuGs2a2-73" value="P-LANGUAGE" style="rounded=1;arcSize=10;whiteSpace=wrap;html=1;align=center;" parent="1" vertex="1">
          <mxGeometry x="690" y="-130" width="100" height="40" as="geometry" />
        </mxCell>
        <mxCell id="Rp4w2FqZeHLNgpuGs2a2-77" value="" style="endArrow=none;html=1;rounded=0;exitX=1;exitY=0;exitDx=0;exitDy=0;entryX=0;entryY=0.5;entryDx=0;entryDy=0;" parent="1" source="Rp4w2FqZeHLNgpuGs2a2-4" target="Rp4w2FqZeHLNgpuGs2a2-72" edge="1">
          <mxGeometry relative="1" as="geometry">
            <mxPoint x="430" y="90" as="sourcePoint" />
            <mxPoint x="590" y="90" as="targetPoint" />
          </mxGeometry>
        </mxCell>
        <mxCell id="Rp4w2FqZeHLNgpuGs2a2-79" value="" style="endArrow=none;html=1;rounded=0;entryX=0;entryY=0.5;entryDx=0;entryDy=0;exitX=1;exitY=0.5;exitDx=0;exitDy=0;" parent="1" target="Rp4w2FqZeHLNgpuGs2a2-73" edge="1">
          <mxGeometry relative="1" as="geometry">
            <mxPoint x="600" y="-110" as="sourcePoint" />
            <mxPoint x="520" as="targetPoint" />
          </mxGeometry>
        </mxCell>
        <mxCell id="Rp4w2FqZeHLNgpuGs2a2-80" value="1" style="resizable=0;html=1;whiteSpace=wrap;align=right;verticalAlign=bottom;" parent="Rp4w2FqZeHLNgpuGs2a2-79" connectable="0" vertex="1">
          <mxGeometry x="1" relative="1" as="geometry" />
        </mxCell>
        <mxCell id="Rp4w2FqZeHLNgpuGs2a2-81" value="NAME" style="ellipse;whiteSpace=wrap;html=1;align=center;" parent="1" vertex="1">
          <mxGeometry x="700" y="-220" width="100" height="40" as="geometry" />
        </mxCell>
        <mxCell id="Rp4w2FqZeHLNgpuGs2a2-82" value="ID" style="ellipse;whiteSpace=wrap;html=1;align=center;fontStyle=4;" parent="1" vertex="1">
          <mxGeometry x="600" y="-220" width="100" height="40" as="geometry" />
        </mxCell>
        <mxCell id="Rp4w2FqZeHLNgpuGs2a2-83" value="&lt;span style=&quot;border-bottom: 1px dotted&quot;&gt;P-LANGUAGE-ID&lt;/span&gt;" style="ellipse;whiteSpace=wrap;html=1;align=center;" parent="1" vertex="1">
          <mxGeometry x="260" y="-130" width="100" height="40" as="geometry" />
        </mxCell>
        <mxCell id="Rp4w2FqZeHLNgpuGs2a2-84" value="" style="endArrow=none;html=1;rounded=0;exitX=0.5;exitY=1;exitDx=0;exitDy=0;entryX=0.5;entryY=0;entryDx=0;entryDy=0;" parent="1" source="Rp4w2FqZeHLNgpuGs2a2-83" target="Rp4w2FqZeHLNgpuGs2a2-4" edge="1">
          <mxGeometry relative="1" as="geometry">
            <mxPoint x="250" as="sourcePoint" />
            <mxPoint x="410" as="targetPoint" />
          </mxGeometry>
        </mxCell>
        <mxCell id="Rp4w2FqZeHLNgpuGs2a2-89" value="M" style="text;strokeColor=none;fillColor=none;spacingLeft=4;spacingRight=4;overflow=hidden;rotatable=0;points=[[0,0.5],[1,0.5]];portConstraint=eastwest;fontSize=12;whiteSpace=wrap;html=1;" parent="1" vertex="1">
          <mxGeometry x="395" y="-10" width="40" height="30" as="geometry" />
        </mxCell>
        <mxCell id="Rp4w2FqZeHLNgpuGs2a2-90" value="PERSENT" style="ellipse;whiteSpace=wrap;html=1;align=center;" parent="1" vertex="1">
          <mxGeometry x="800" y="-220" width="100" height="40" as="geometry" />
        </mxCell>
        <mxCell id="Rp4w2FqZeHLNgpuGs2a2-91" value="" style="endArrow=none;html=1;rounded=0;exitX=0.5;exitY=1;exitDx=0;exitDy=0;entryX=0.25;entryY=0;entryDx=0;entryDy=0;" parent="1" source="Rp4w2FqZeHLNgpuGs2a2-82" target="Rp4w2FqZeHLNgpuGs2a2-73" edge="1">
          <mxGeometry relative="1" as="geometry">
            <mxPoint x="650" y="-90" as="sourcePoint" />
            <mxPoint x="810" y="-90" as="targetPoint" />
          </mxGeometry>
        </mxCell>
        <mxCell id="Rp4w2FqZeHLNgpuGs2a2-92" value="" style="endArrow=none;html=1;rounded=0;exitX=0.5;exitY=1;exitDx=0;exitDy=0;entryX=0.5;entryY=0;entryDx=0;entryDy=0;" parent="1" source="Rp4w2FqZeHLNgpuGs2a2-81" target="Rp4w2FqZeHLNgpuGs2a2-73" edge="1">
          <mxGeometry relative="1" as="geometry">
            <mxPoint x="650" y="-90" as="sourcePoint" />
            <mxPoint x="810" y="-90" as="targetPoint" />
          </mxGeometry>
        </mxCell>
        <mxCell id="Rp4w2FqZeHLNgpuGs2a2-93" value="" style="endArrow=none;html=1;rounded=0;entryX=0.75;entryY=0;entryDx=0;entryDy=0;exitX=0;exitY=0.5;exitDx=0;exitDy=0;" parent="1" source="Rp4w2FqZeHLNgpuGs2a2-90" target="Rp4w2FqZeHLNgpuGs2a2-73" edge="1">
          <mxGeometry relative="1" as="geometry">
            <mxPoint x="840" y="-150" as="sourcePoint" />
            <mxPoint x="810" y="-90" as="targetPoint" />
          </mxGeometry>
        </mxCell>
        <mxCell id="Rp4w2FqZeHLNgpuGs2a2-94" value="SOURCE-CODE-BASE" style="rounded=1;arcSize=10;whiteSpace=wrap;html=1;align=center;" parent="1" vertex="1">
          <mxGeometry x="660" y="20" width="100" height="40" as="geometry" />
        </mxCell>
        <mxCell id="Rp4w2FqZeHLNgpuGs2a2-95" value="ASSINGMENT-BASE" style="rounded=1;arcSize=10;whiteSpace=wrap;html=1;align=center;" parent="1" vertex="1">
          <mxGeometry x="670" y="570" width="100" height="40" as="geometry" />
        </mxCell>
        <mxCell id="Rp4w2FqZeHLNgpuGs2a2-96" value="GRADE-BASE" style="rounded=1;arcSize=10;whiteSpace=wrap;html=1;align=center;" parent="1" vertex="1">
          <mxGeometry x="680" y="260" width="100" height="40" as="geometry" />
        </mxCell>
        <mxCell id="Rp4w2FqZeHLNgpuGs2a2-97" value="SYSTEM" style="shape=associativeEntity;whiteSpace=wrap;html=1;align=center;" parent="1" vertex="1">
          <mxGeometry x="1110" y="250" width="140" height="60" as="geometry" />
        </mxCell>
        <mxCell id="Rp4w2FqZeHLNgpuGs2a2-98" value="UPLOAD" style="shape=rhombus;perimeter=rhombusPerimeter;whiteSpace=wrap;html=1;align=center;" parent="1" vertex="1">
          <mxGeometry x="490" y="560" width="120" height="60" as="geometry" />
        </mxCell>
        <mxCell id="Rp4w2FqZeHLNgpuGs2a2-99" value="UPLOAD" style="shape=rhombus;perimeter=rhombusPerimeter;whiteSpace=wrap;html=1;align=center;" parent="1" vertex="1">
          <mxGeometry x="500" y="250" width="120" height="60" as="geometry" />
        </mxCell>
        <mxCell id="Rp4w2FqZeHLNgpuGs2a2-100" value="UPLOAD" style="shape=rhombus;perimeter=rhombusPerimeter;whiteSpace=wrap;html=1;align=center;" parent="1" vertex="1">
          <mxGeometry x="480" y="10" width="120" height="60" as="geometry" />
        </mxCell>
        <mxCell id="Rp4w2FqZeHLNgpuGs2a2-103" value="" style="shape=link;html=1;rounded=0;entryX=0;entryY=0.5;entryDx=0;entryDy=0;exitX=1;exitY=0.5;exitDx=0;exitDy=0;" parent="1" source="Rp4w2FqZeHLNgpuGs2a2-100" target="Rp4w2FqZeHLNgpuGs2a2-94" edge="1">
          <mxGeometry relative="1" as="geometry">
            <mxPoint x="350" y="120" as="sourcePoint" />
            <mxPoint x="510" y="120" as="targetPoint" />
          </mxGeometry>
        </mxCell>
        <mxCell id="Rp4w2FqZeHLNgpuGs2a2-104" value="M" style="resizable=0;html=1;whiteSpace=wrap;align=right;verticalAlign=bottom;" parent="Rp4w2FqZeHLNgpuGs2a2-103" connectable="0" vertex="1">
          <mxGeometry x="1" relative="1" as="geometry" />
        </mxCell>
        <mxCell id="Rp4w2FqZeHLNgpuGs2a2-105" value="" style="endArrow=none;html=1;rounded=0;entryX=1;entryY=0.5;entryDx=0;entryDy=0;exitX=0;exitY=0.5;exitDx=0;exitDy=0;" parent="1" source="Rp4w2FqZeHLNgpuGs2a2-100" target="Rp4w2FqZeHLNgpuGs2a2-4" edge="1">
          <mxGeometry relative="1" as="geometry">
            <mxPoint x="350" y="120" as="sourcePoint" />
            <mxPoint x="510" y="120" as="targetPoint" />
          </mxGeometry>
        </mxCell>
        <mxCell id="Rp4w2FqZeHLNgpuGs2a2-106" value="1" style="resizable=0;html=1;whiteSpace=wrap;align=right;verticalAlign=bottom;" parent="Rp4w2FqZeHLNgpuGs2a2-105" connectable="0" vertex="1">
          <mxGeometry x="1" relative="1" as="geometry">
            <mxPoint x="11" as="offset" />
          </mxGeometry>
        </mxCell>
        <mxCell id="Rp4w2FqZeHLNgpuGs2a2-107" value="" style="shape=link;html=1;rounded=0;entryX=0;entryY=0.5;entryDx=0;entryDy=0;exitX=1;exitY=0.5;exitDx=0;exitDy=0;" parent="1" source="Rp4w2FqZeHLNgpuGs2a2-99" target="Rp4w2FqZeHLNgpuGs2a2-96" edge="1">
          <mxGeometry relative="1" as="geometry">
            <mxPoint x="630" y="140" as="sourcePoint" />
            <mxPoint x="690" y="140" as="targetPoint" />
          </mxGeometry>
        </mxCell>
        <mxCell id="Rp4w2FqZeHLNgpuGs2a2-108" value="M" style="resizable=0;html=1;whiteSpace=wrap;align=right;verticalAlign=bottom;" parent="Rp4w2FqZeHLNgpuGs2a2-107" connectable="0" vertex="1">
          <mxGeometry x="1" relative="1" as="geometry" />
        </mxCell>
        <mxCell id="Rp4w2FqZeHLNgpuGs2a2-109" value="" style="shape=link;html=1;rounded=0;entryX=1;entryY=0.5;entryDx=0;entryDy=0;exitX=0;exitY=0.5;exitDx=0;exitDy=0;" parent="1" source="Rp4w2FqZeHLNgpuGs2a2-99" target="Rp4w2FqZeHLNgpuGs2a2-3" edge="1">
          <mxGeometry relative="1" as="geometry">
            <mxPoint x="370" y="210" as="sourcePoint" />
            <mxPoint x="530" y="210" as="targetPoint" />
          </mxGeometry>
        </mxCell>
        <mxCell id="Rp4w2FqZeHLNgpuGs2a2-110" value="1" style="resizable=0;html=1;whiteSpace=wrap;align=right;verticalAlign=bottom;" parent="Rp4w2FqZeHLNgpuGs2a2-109" connectable="0" vertex="1">
          <mxGeometry x="1" relative="1" as="geometry">
            <mxPoint x="11" as="offset" />
          </mxGeometry>
        </mxCell>
        <mxCell id="Rp4w2FqZeHLNgpuGs2a2-112" value="" style="shape=link;html=1;rounded=0;entryX=1;entryY=0.5;entryDx=0;entryDy=0;exitX=0;exitY=0.5;exitDx=0;exitDy=0;" parent="1" source="Rp4w2FqZeHLNgpuGs2a2-98" target="Rp4w2FqZeHLNgpuGs2a2-2" edge="1">
          <mxGeometry relative="1" as="geometry">
            <mxPoint x="500" y="420" as="sourcePoint" />
            <mxPoint x="410" y="420" as="targetPoint" />
          </mxGeometry>
        </mxCell>
        <mxCell id="Rp4w2FqZeHLNgpuGs2a2-113" value="1" style="resizable=0;html=1;whiteSpace=wrap;align=right;verticalAlign=bottom;" parent="Rp4w2FqZeHLNgpuGs2a2-112" connectable="0" vertex="1">
          <mxGeometry x="1" relative="1" as="geometry">
            <mxPoint x="11" as="offset" />
          </mxGeometry>
        </mxCell>
        <mxCell id="Rp4w2FqZeHLNgpuGs2a2-114" value="" style="shape=link;html=1;rounded=0;entryX=0;entryY=0.5;entryDx=0;entryDy=0;exitX=1;exitY=0.5;exitDx=0;exitDy=0;" parent="1" source="Rp4w2FqZeHLNgpuGs2a2-98" target="Rp4w2FqZeHLNgpuGs2a2-95" edge="1">
          <mxGeometry relative="1" as="geometry">
            <mxPoint x="620" y="420" as="sourcePoint" />
            <mxPoint x="680" y="420" as="targetPoint" />
          </mxGeometry>
        </mxCell>
        <mxCell id="Rp4w2FqZeHLNgpuGs2a2-115" value="M" style="resizable=0;html=1;whiteSpace=wrap;align=right;verticalAlign=bottom;" parent="Rp4w2FqZeHLNgpuGs2a2-114" connectable="0" vertex="1">
          <mxGeometry x="1" relative="1" as="geometry" />
        </mxCell>
        <mxCell id="Rp4w2FqZeHLNgpuGs2a2-117" value="AGE" style="ellipse;whiteSpace=wrap;html=1;align=center;" parent="1" vertex="1">
          <mxGeometry x="-170" y="350" width="100" height="40" as="geometry" />
        </mxCell>
        <mxCell id="Rp4w2FqZeHLNgpuGs2a2-118" value="" style="endArrow=none;html=1;rounded=0;exitX=1;exitY=0.5;exitDx=0;exitDy=0;" parent="1" source="Rp4w2FqZeHLNgpuGs2a2-117" edge="1">
          <mxGeometry relative="1" as="geometry">
            <mxPoint x="360" y="210" as="sourcePoint" />
            <mxPoint x="-20" y="300" as="targetPoint" />
          </mxGeometry>
        </mxCell>
        <mxCell id="Rp4w2FqZeHLNgpuGs2a2-123" value="ID" style="ellipse;whiteSpace=wrap;html=1;align=center;fontStyle=4;" parent="1" vertex="1">
          <mxGeometry x="560" y="-60" width="100" height="40" as="geometry" />
        </mxCell>
        <mxCell id="Rp4w2FqZeHLNgpuGs2a2-124" value="&lt;span style=&quot;border-bottom: 1px dotted&quot;&gt;STUDENT-ID&lt;/span&gt;" style="ellipse;whiteSpace=wrap;html=1;align=center;" parent="1" vertex="1">
          <mxGeometry x="560" y="80" width="100" height="40" as="geometry" />
        </mxCell>
        <mxCell id="Rp4w2FqZeHLNgpuGs2a2-125" value="&lt;span style=&quot;border-bottom: 1px dotted&quot;&gt;P-LANGUAGE-ID&lt;/span&gt;" style="ellipse;whiteSpace=wrap;html=1;align=center;" parent="1" vertex="1">
          <mxGeometry x="665" y="80" width="110" height="40" as="geometry" />
        </mxCell>
        <mxCell id="Rp4w2FqZeHLNgpuGs2a2-126" value="" style="endArrow=none;html=1;rounded=0;exitX=0;exitY=1;exitDx=0;exitDy=0;entryX=1;entryY=0;entryDx=0;entryDy=0;" parent="1" source="Rp4w2FqZeHLNgpuGs2a2-94" edge="1">
          <mxGeometry relative="1" as="geometry">
            <mxPoint x="400" y="120" as="sourcePoint" />
            <mxPoint x="645.145520603814" y="85.77443213655147" as="targetPoint" />
          </mxGeometry>
        </mxCell>
        <mxCell id="Rp4w2FqZeHLNgpuGs2a2-127" value="" style="endArrow=none;html=1;rounded=0;entryX=0.5;entryY=1;entryDx=0;entryDy=0;exitX=0.5;exitY=0;exitDx=0;exitDy=0;" parent="1" target="Rp4w2FqZeHLNgpuGs2a2-94" edge="1">
          <mxGeometry relative="1" as="geometry">
            <mxPoint x="715" y="80" as="sourcePoint" />
            <mxPoint x="560" y="120" as="targetPoint" />
          </mxGeometry>
        </mxCell>
        <mxCell id="Rp4w2FqZeHLNgpuGs2a2-128" value="" style="endArrow=none;html=1;rounded=0;exitX=1;exitY=1;exitDx=0;exitDy=0;entryX=0.25;entryY=0;entryDx=0;entryDy=0;" parent="1" source="Rp4w2FqZeHLNgpuGs2a2-123" target="Rp4w2FqZeHLNgpuGs2a2-94" edge="1">
          <mxGeometry relative="1" as="geometry">
            <mxPoint x="400" y="120" as="sourcePoint" />
            <mxPoint x="560" y="120" as="targetPoint" />
          </mxGeometry>
        </mxCell>
        <mxCell id="Rp4w2FqZeHLNgpuGs2a2-131" value="" style="endArrow=none;html=1;rounded=0;entryX=0.5;entryY=1;entryDx=0;entryDy=0;exitX=0.5;exitY=0;exitDx=0;exitDy=0;" parent="1" source="Rp4w2FqZeHLNgpuGs2a2-133" target="Rp4w2FqZeHLNgpuGs2a2-73" edge="1">
          <mxGeometry relative="1" as="geometry">
            <mxPoint x="730" y="-40" as="sourcePoint" />
            <mxPoint x="560" y="120" as="targetPoint" />
          </mxGeometry>
        </mxCell>
        <mxCell id="Rp4w2FqZeHLNgpuGs2a2-132" value="1" style="resizable=0;html=1;whiteSpace=wrap;align=right;verticalAlign=bottom;" parent="Rp4w2FqZeHLNgpuGs2a2-131" connectable="0" vertex="1">
          <mxGeometry x="1" relative="1" as="geometry">
            <mxPoint y="20" as="offset" />
          </mxGeometry>
        </mxCell>
        <mxCell id="Rp4w2FqZeHLNgpuGs2a2-133" value="CONTAINS" style="shape=rhombus;perimeter=rhombusPerimeter;whiteSpace=wrap;html=1;align=center;" parent="1" vertex="1">
          <mxGeometry x="695" y="-70" width="90" height="60" as="geometry" />
        </mxCell>
        <mxCell id="Rp4w2FqZeHLNgpuGs2a2-134" value="" style="shape=link;html=1;rounded=0;entryX=0.75;entryY=0;entryDx=0;entryDy=0;exitX=0.5;exitY=1;exitDx=0;exitDy=0;" parent="1" source="Rp4w2FqZeHLNgpuGs2a2-133" target="Rp4w2FqZeHLNgpuGs2a2-94" edge="1">
          <mxGeometry relative="1" as="geometry">
            <mxPoint x="400" y="120" as="sourcePoint" />
            <mxPoint x="560" y="120" as="targetPoint" />
          </mxGeometry>
        </mxCell>
        <mxCell id="Rp4w2FqZeHLNgpuGs2a2-135" value="M" style="resizable=0;html=1;whiteSpace=wrap;align=right;verticalAlign=bottom;" parent="Rp4w2FqZeHLNgpuGs2a2-134" connectable="0" vertex="1">
          <mxGeometry x="1" relative="1" as="geometry">
            <mxPoint x="-5" as="offset" />
          </mxGeometry>
        </mxCell>
        <mxCell id="Rp4w2FqZeHLNgpuGs2a2-145" value="NAME" style="ellipse;whiteSpace=wrap;html=1;align=center;" parent="1" vertex="1">
          <mxGeometry x="510" y="690" width="100" height="40" as="geometry" />
        </mxCell>
        <mxCell id="Rp4w2FqZeHLNgpuGs2a2-146" value="ID" style="ellipse;whiteSpace=wrap;html=1;align=center;fontStyle=4;" parent="1" vertex="1">
          <mxGeometry x="410" y="690" width="100" height="40" as="geometry" />
        </mxCell>
        <mxCell id="Rp4w2FqZeHLNgpuGs2a2-147" value="&lt;span style=&quot;border-bottom: 1px dotted&quot;&gt;ADMIN-ID&lt;/span&gt;" style="ellipse;whiteSpace=wrap;html=1;align=center;" parent="1" vertex="1">
          <mxGeometry x="610" y="690" width="100" height="40" as="geometry" />
        </mxCell>
        <mxCell id="Rp4w2FqZeHLNgpuGs2a2-148" value="CONTENT" style="ellipse;whiteSpace=wrap;html=1;align=center;" parent="1" vertex="1">
          <mxGeometry x="710" y="690" width="100" height="40" as="geometry" />
        </mxCell>
        <mxCell id="Rp4w2FqZeHLNgpuGs2a2-149" value="TYPE" style="ellipse;whiteSpace=wrap;html=1;align=center;" parent="1" vertex="1">
          <mxGeometry x="810" y="690" width="100" height="40" as="geometry" />
        </mxCell>
        <mxCell id="Rp4w2FqZeHLNgpuGs2a2-150" value="ALGORITMS" style="ellipse;whiteSpace=wrap;html=1;align=center;" parent="1" vertex="1">
          <mxGeometry x="910" y="690" width="100" height="40" as="geometry" />
        </mxCell>
        <mxCell id="Rp4w2FqZeHLNgpuGs2a2-151" value="" style="endArrow=none;html=1;rounded=0;exitX=0.5;exitY=0;exitDx=0;exitDy=0;entryX=0;entryY=1;entryDx=0;entryDy=0;" parent="1" source="Rp4w2FqZeHLNgpuGs2a2-146" target="Rp4w2FqZeHLNgpuGs2a2-95" edge="1">
          <mxGeometry relative="1" as="geometry">
            <mxPoint x="550" y="630" as="sourcePoint" />
            <mxPoint x="710" y="630" as="targetPoint" />
          </mxGeometry>
        </mxCell>
        <mxCell id="Rp4w2FqZeHLNgpuGs2a2-152" value="" style="endArrow=none;html=1;rounded=0;entryX=0.5;entryY=0;entryDx=0;entryDy=0;exitX=0.25;exitY=1;exitDx=0;exitDy=0;" parent="1" source="Rp4w2FqZeHLNgpuGs2a2-95" target="Rp4w2FqZeHLNgpuGs2a2-145" edge="1">
          <mxGeometry relative="1" as="geometry">
            <mxPoint x="550" y="630" as="sourcePoint" />
            <mxPoint x="710" y="630" as="targetPoint" />
          </mxGeometry>
        </mxCell>
        <mxCell id="Rp4w2FqZeHLNgpuGs2a2-153" value="" style="endArrow=none;html=1;rounded=0;entryX=0.5;entryY=0;entryDx=0;entryDy=0;exitX=0.5;exitY=1;exitDx=0;exitDy=0;" parent="1" source="Rp4w2FqZeHLNgpuGs2a2-95" target="Rp4w2FqZeHLNgpuGs2a2-147" edge="1">
          <mxGeometry relative="1" as="geometry">
            <mxPoint x="550" y="630" as="sourcePoint" />
            <mxPoint x="710" y="630" as="targetPoint" />
          </mxGeometry>
        </mxCell>
        <mxCell id="Rp4w2FqZeHLNgpuGs2a2-154" value="" style="endArrow=none;html=1;rounded=0;entryX=0.5;entryY=0;entryDx=0;entryDy=0;exitX=0.5;exitY=1;exitDx=0;exitDy=0;" parent="1" source="Rp4w2FqZeHLNgpuGs2a2-95" target="Rp4w2FqZeHLNgpuGs2a2-148" edge="1">
          <mxGeometry relative="1" as="geometry">
            <mxPoint x="550" y="630" as="sourcePoint" />
            <mxPoint x="710" y="630" as="targetPoint" />
          </mxGeometry>
        </mxCell>
        <mxCell id="Rp4w2FqZeHLNgpuGs2a2-155" value="" style="endArrow=none;html=1;rounded=0;entryX=0.5;entryY=0;entryDx=0;entryDy=0;exitX=0.75;exitY=1;exitDx=0;exitDy=0;" parent="1" source="Rp4w2FqZeHLNgpuGs2a2-95" target="Rp4w2FqZeHLNgpuGs2a2-149" edge="1">
          <mxGeometry relative="1" as="geometry">
            <mxPoint x="550" y="630" as="sourcePoint" />
            <mxPoint x="710" y="630" as="targetPoint" />
          </mxGeometry>
        </mxCell>
        <mxCell id="Rp4w2FqZeHLNgpuGs2a2-156" value="" style="endArrow=none;html=1;rounded=0;entryX=0.5;entryY=0;entryDx=0;entryDy=0;exitX=1;exitY=1;exitDx=0;exitDy=0;" parent="1" source="Rp4w2FqZeHLNgpuGs2a2-95" target="Rp4w2FqZeHLNgpuGs2a2-150" edge="1">
          <mxGeometry relative="1" as="geometry">
            <mxPoint x="550" y="630" as="sourcePoint" />
            <mxPoint x="710" y="630" as="targetPoint" />
          </mxGeometry>
        </mxCell>
        <mxCell id="Rp4w2FqZeHLNgpuGs2a2-159" value="ID" style="ellipse;whiteSpace=wrap;html=1;align=center;fontStyle=4;" parent="1" vertex="1">
          <mxGeometry x="310" y="330" width="100" height="40" as="geometry" />
        </mxCell>
        <mxCell id="Rp4w2FqZeHLNgpuGs2a2-160" value="ID" style="ellipse;whiteSpace=wrap;html=1;align=center;fontStyle=4;" parent="1" vertex="1">
          <mxGeometry x="250" y="500" width="100" height="40" as="geometry" />
        </mxCell>
        <mxCell id="Rp4w2FqZeHLNgpuGs2a2-161" value="" style="endArrow=none;html=1;rounded=0;entryX=0.5;entryY=0;entryDx=0;entryDy=0;exitX=0.5;exitY=1;exitDx=0;exitDy=0;" parent="1" source="Rp4w2FqZeHLNgpuGs2a2-160" target="Rp4w2FqZeHLNgpuGs2a2-2" edge="1">
          <mxGeometry relative="1" as="geometry">
            <mxPoint x="430" y="510" as="sourcePoint" />
            <mxPoint x="590" y="510" as="targetPoint" />
          </mxGeometry>
        </mxCell>
        <mxCell id="Rp4w2FqZeHLNgpuGs2a2-162" value="" style="endArrow=none;html=1;rounded=0;exitX=0.5;exitY=1;exitDx=0;exitDy=0;entryX=0.5;entryY=0;entryDx=0;entryDy=0;" parent="1" source="Rp4w2FqZeHLNgpuGs2a2-3" target="Rp4w2FqZeHLNgpuGs2a2-159" edge="1">
          <mxGeometry relative="1" as="geometry">
            <mxPoint x="430" y="510" as="sourcePoint" />
            <mxPoint x="590" y="510" as="targetPoint" />
          </mxGeometry>
        </mxCell>
        <mxCell id="Rp4w2FqZeHLNgpuGs2a2-165" value="LANGUAGE" style="ellipse;whiteSpace=wrap;html=1;align=center;" parent="1" vertex="1">
          <mxGeometry x="1320" y="590" width="100" height="40" as="geometry" />
        </mxCell>
        <mxCell id="Rp4w2FqZeHLNgpuGs2a2-166" value="DIFFICULTY" style="ellipse;whiteSpace=wrap;html=1;align=center;" parent="1" vertex="1">
          <mxGeometry x="1320" y="530" width="100" height="40" as="geometry" />
        </mxCell>
        <mxCell id="Rp4w2FqZeHLNgpuGs2a2-168" style="edgeStyle=orthogonalEdgeStyle;rounded=0;orthogonalLoop=1;jettySize=auto;html=1;exitX=0.75;exitY=0;exitDx=0;exitDy=0;entryX=0.148;entryY=-0.04;entryDx=0;entryDy=0;entryPerimeter=0;" parent="1" source="Rp4w2FqZeHLNgpuGs2a2-167" target="Rp4w2FqZeHLNgpuGs2a2-167" edge="1">
          <mxGeometry relative="1" as="geometry">
            <mxPoint x="1124.5294117647059" y="520" as="targetPoint" />
            <Array as="points">
              <mxPoint x="1125" y="550" />
              <mxPoint x="1065" y="550" />
            </Array>
          </mxGeometry>
        </mxCell>
        <mxCell id="Rp4w2FqZeHLNgpuGs2a2-167" value="TYPE OF ASSINGMENT" style="rounded=1;arcSize=10;whiteSpace=wrap;html=1;align=center;" parent="1" vertex="1">
          <mxGeometry x="1050" y="570" width="100" height="40" as="geometry" />
        </mxCell>
        <mxCell id="Rp4w2FqZeHLNgpuGs2a2-169" value="Attribute" style="ellipse;whiteSpace=wrap;html=1;align=center;" parent="1" vertex="1">
          <mxGeometry x="1180" y="570" width="100" height="40" as="geometry" />
        </mxCell>
        <mxCell id="Rp4w2FqZeHLNgpuGs2a2-170" value="" style="endArrow=none;html=1;rounded=0;entryX=0;entryY=0.5;entryDx=0;entryDy=0;exitX=1;exitY=0;exitDx=0;exitDy=0;" parent="1" source="Rp4w2FqZeHLNgpuGs2a2-169" target="Rp4w2FqZeHLNgpuGs2a2-166" edge="1">
          <mxGeometry relative="1" as="geometry">
            <mxPoint x="740" y="500" as="sourcePoint" />
            <mxPoint x="900" y="500" as="targetPoint" />
          </mxGeometry>
        </mxCell>
        <mxCell id="Rp4w2FqZeHLNgpuGs2a2-171" value="" style="endArrow=none;html=1;rounded=0;entryX=0;entryY=0.5;entryDx=0;entryDy=0;exitX=1;exitY=1;exitDx=0;exitDy=0;" parent="1" source="Rp4w2FqZeHLNgpuGs2a2-169" target="Rp4w2FqZeHLNgpuGs2a2-165" edge="1">
          <mxGeometry relative="1" as="geometry">
            <mxPoint x="740" y="500" as="sourcePoint" />
            <mxPoint x="900" y="500" as="targetPoint" />
          </mxGeometry>
        </mxCell>
        <mxCell id="Rp4w2FqZeHLNgpuGs2a2-172" value="" style="endArrow=none;html=1;rounded=0;entryX=0;entryY=0.5;entryDx=0;entryDy=0;exitX=1;exitY=0.5;exitDx=0;exitDy=0;" parent="1" source="Rp4w2FqZeHLNgpuGs2a2-167" target="Rp4w2FqZeHLNgpuGs2a2-169" edge="1">
          <mxGeometry relative="1" as="geometry">
            <mxPoint x="740" y="500" as="sourcePoint" />
            <mxPoint x="900" y="500" as="targetPoint" />
          </mxGeometry>
        </mxCell>
        <mxCell id="Rp4w2FqZeHLNgpuGs2a2-174" value="ID" style="ellipse;whiteSpace=wrap;html=1;align=center;fontStyle=4;" parent="1" vertex="1">
          <mxGeometry x="1180" y="520" width="100" height="40" as="geometry" />
        </mxCell>
        <mxCell id="Rp4w2FqZeHLNgpuGs2a2-175" value="" style="endArrow=none;html=1;rounded=0;entryX=0;entryY=0.5;entryDx=0;entryDy=0;exitX=1;exitY=0;exitDx=0;exitDy=0;" parent="1" source="Rp4w2FqZeHLNgpuGs2a2-167" target="Rp4w2FqZeHLNgpuGs2a2-174" edge="1">
          <mxGeometry relative="1" as="geometry">
            <mxPoint x="740" y="500" as="sourcePoint" />
            <mxPoint x="900" y="500" as="targetPoint" />
          </mxGeometry>
        </mxCell>
        <mxCell id="Rp4w2FqZeHLNgpuGs2a2-176" value="IS" style="shape=rhombus;perimeter=rhombusPerimeter;whiteSpace=wrap;html=1;align=center;" parent="1" vertex="1">
          <mxGeometry x="870" y="560" width="70" height="60" as="geometry" />
        </mxCell>
        <mxCell id="Rp4w2FqZeHLNgpuGs2a2-177" value="" style="shape=link;html=1;rounded=0;entryX=0;entryY=0.5;entryDx=0;entryDy=0;exitX=1;exitY=0.5;exitDx=0;exitDy=0;" parent="1" source="Rp4w2FqZeHLNgpuGs2a2-176" target="Rp4w2FqZeHLNgpuGs2a2-167" edge="1">
          <mxGeometry relative="1" as="geometry">
            <mxPoint x="820" y="500" as="sourcePoint" />
            <mxPoint x="980" y="500" as="targetPoint" />
          </mxGeometry>
        </mxCell>
        <mxCell id="Rp4w2FqZeHLNgpuGs2a2-178" value="N" style="resizable=0;html=1;whiteSpace=wrap;align=right;verticalAlign=bottom;" parent="Rp4w2FqZeHLNgpuGs2a2-177" connectable="0" vertex="1">
          <mxGeometry x="1" relative="1" as="geometry" />
        </mxCell>
        <mxCell id="Rp4w2FqZeHLNgpuGs2a2-181" value="" style="shape=link;html=1;rounded=0;entryX=1;entryY=0.5;entryDx=0;entryDy=0;exitX=0;exitY=0.5;exitDx=0;exitDy=0;" parent="1" source="Rp4w2FqZeHLNgpuGs2a2-176" target="Rp4w2FqZeHLNgpuGs2a2-95" edge="1">
          <mxGeometry relative="1" as="geometry">
            <mxPoint x="820" y="500" as="sourcePoint" />
            <mxPoint x="980" y="500" as="targetPoint" />
          </mxGeometry>
        </mxCell>
        <mxCell id="Rp4w2FqZeHLNgpuGs2a2-182" value="M" style="resizable=0;html=1;whiteSpace=wrap;align=right;verticalAlign=bottom;" parent="Rp4w2FqZeHLNgpuGs2a2-181" connectable="0" vertex="1">
          <mxGeometry x="1" relative="1" as="geometry">
            <mxPoint x="15" as="offset" />
          </mxGeometry>
        </mxCell>
        <mxCell id="Rp4w2FqZeHLNgpuGs2a2-183" value="CHECKING IF THE TYPE IS SIMILAR TO OTHERS IN THE TABLE" style="shape=note;size=20;whiteSpace=wrap;html=1;" parent="1" vertex="1">
          <mxGeometry x="1020" y="440" width="130" height="100" as="geometry" />
        </mxCell>
        <mxCell id="Rp4w2FqZeHLNgpuGs2a2-187" value="TYPE-ID" style="ellipse;whiteSpace=wrap;html=1;align=center;" parent="1" vertex="1">
          <mxGeometry x="950" y="640" width="100" height="40" as="geometry" />
        </mxCell>
        <mxCell id="Rp4w2FqZeHLNgpuGs2a2-188" value="" style="endArrow=none;html=1;rounded=0;entryX=0;entryY=0.5;entryDx=0;entryDy=0;exitX=1;exitY=0.75;exitDx=0;exitDy=0;" parent="1" source="Rp4w2FqZeHLNgpuGs2a2-95" target="Rp4w2FqZeHLNgpuGs2a2-187" edge="1">
          <mxGeometry relative="1" as="geometry">
            <mxPoint x="740" y="470" as="sourcePoint" />
            <mxPoint x="900" y="470" as="targetPoint" />
          </mxGeometry>
        </mxCell>
        <mxCell id="Rp4w2FqZeHLNgpuGs2a2-189" value="ID" style="ellipse;whiteSpace=wrap;html=1;align=center;fontStyle=4;" parent="1" vertex="1">
          <mxGeometry x="520" y="320" width="100" height="40" as="geometry" />
        </mxCell>
        <mxCell id="Rp4w2FqZeHLNgpuGs2a2-190" value="&lt;span style=&quot;border-bottom: 1px dotted&quot;&gt;INTRUCTOR-ID&lt;/span&gt;" style="ellipse;whiteSpace=wrap;html=1;align=center;" parent="1" vertex="1">
          <mxGeometry x="620" y="320" width="100" height="40" as="geometry" />
        </mxCell>
        <mxCell id="Rp4w2FqZeHLNgpuGs2a2-192" value="GRADE" style="ellipse;whiteSpace=wrap;html=1;align=center;" parent="1" vertex="1">
          <mxGeometry x="720" y="320" width="100" height="40" as="geometry" />
        </mxCell>
        <mxCell id="Rp4w2FqZeHLNgpuGs2a2-193" value="SOLUTION" style="ellipse;whiteSpace=wrap;html=1;align=center;" parent="1" vertex="1">
          <mxGeometry x="820" y="320" width="100" height="40" as="geometry" />
        </mxCell>
        <mxCell id="Rp4w2FqZeHLNgpuGs2a2-194" value="" style="endArrow=none;html=1;rounded=0;exitX=0;exitY=1;exitDx=0;exitDy=0;entryX=1;entryY=0;entryDx=0;entryDy=0;" parent="1" source="Rp4w2FqZeHLNgpuGs2a2-96" target="Rp4w2FqZeHLNgpuGs2a2-189" edge="1">
          <mxGeometry relative="1" as="geometry">
            <mxPoint x="650" y="470" as="sourcePoint" />
            <mxPoint x="810" y="470" as="targetPoint" />
          </mxGeometry>
        </mxCell>
        <mxCell id="Rp4w2FqZeHLNgpuGs2a2-195" value="" style="endArrow=none;html=1;rounded=0;entryX=0.25;entryY=1;entryDx=0;entryDy=0;exitX=0.5;exitY=0;exitDx=0;exitDy=0;" parent="1" source="Rp4w2FqZeHLNgpuGs2a2-190" target="Rp4w2FqZeHLNgpuGs2a2-96" edge="1">
          <mxGeometry relative="1" as="geometry">
            <mxPoint x="650" y="470" as="sourcePoint" />
            <mxPoint x="810" y="470" as="targetPoint" />
          </mxGeometry>
        </mxCell>
        <mxCell id="Rp4w2FqZeHLNgpuGs2a2-196" value="" style="endArrow=none;html=1;rounded=0;entryX=0.75;entryY=1;entryDx=0;entryDy=0;exitX=0.5;exitY=0;exitDx=0;exitDy=0;" parent="1" source="Rp4w2FqZeHLNgpuGs2a2-192" target="Rp4w2FqZeHLNgpuGs2a2-96" edge="1">
          <mxGeometry relative="1" as="geometry">
            <mxPoint x="650" y="470" as="sourcePoint" />
            <mxPoint x="810" y="470" as="targetPoint" />
          </mxGeometry>
        </mxCell>
        <mxCell id="Rp4w2FqZeHLNgpuGs2a2-197" value="" style="endArrow=none;html=1;rounded=0;entryX=1;entryY=1;entryDx=0;entryDy=0;exitX=0;exitY=0;exitDx=0;exitDy=0;" parent="1" source="Rp4w2FqZeHLNgpuGs2a2-193" target="Rp4w2FqZeHLNgpuGs2a2-96" edge="1">
          <mxGeometry relative="1" as="geometry">
            <mxPoint x="650" y="470" as="sourcePoint" />
            <mxPoint x="810" y="470" as="targetPoint" />
          </mxGeometry>
        </mxCell>
        <mxCell id="Rp4w2FqZeHLNgpuGs2a2-199" value="TEST-EXAMPLES" style="rounded=1;arcSize=10;whiteSpace=wrap;html=1;align=center;" parent="1" vertex="1">
          <mxGeometry x="1470" y="260" width="100" height="40" as="geometry" />
        </mxCell>
        <mxCell id="Rp4w2FqZeHLNgpuGs2a2-201" value="CONTAINS" style="shape=rhombus;perimeter=rhombusPerimeter;whiteSpace=wrap;html=1;align=center;" parent="1" vertex="1">
          <mxGeometry x="1300" y="250" width="120" height="60" as="geometry" />
        </mxCell>
        <mxCell id="Rp4w2FqZeHLNgpuGs2a2-202" value="" style="endArrow=none;html=1;rounded=0;entryX=0;entryY=0.5;entryDx=0;entryDy=0;exitX=1;exitY=0.5;exitDx=0;exitDy=0;" parent="1" source="Rp4w2FqZeHLNgpuGs2a2-97" target="Rp4w2FqZeHLNgpuGs2a2-201" edge="1">
          <mxGeometry relative="1" as="geometry">
            <mxPoint x="1080" y="460" as="sourcePoint" />
            <mxPoint x="1240" y="460" as="targetPoint" />
          </mxGeometry>
        </mxCell>
        <mxCell id="Rp4w2FqZeHLNgpuGs2a2-203" value="UPLOAD" style="shape=rhombus;perimeter=rhombusPerimeter;whiteSpace=wrap;html=1;align=center;" parent="1" vertex="1">
          <mxGeometry x="890" y="400" width="120" height="60" as="geometry" />
        </mxCell>
        <mxCell id="Rp4w2FqZeHLNgpuGs2a2-204" value="UPLOAD" style="shape=rhombus;perimeter=rhombusPerimeter;whiteSpace=wrap;html=1;align=center;" parent="1" vertex="1">
          <mxGeometry x="900" y="245" width="120" height="60" as="geometry" />
        </mxCell>
        <mxCell id="Rp4w2FqZeHLNgpuGs2a2-205" value="UPLOAD" style="shape=rhombus;perimeter=rhombusPerimeter;whiteSpace=wrap;html=1;align=center;" parent="1" vertex="1">
          <mxGeometry x="890" y="100" width="120" height="60" as="geometry" />
        </mxCell>
        <mxCell id="Rp4w2FqZeHLNgpuGs2a2-206" value="OUTPUT" style="ellipse;whiteSpace=wrap;html=1;align=center;" parent="1" vertex="1">
          <mxGeometry x="1590" y="350" width="100" height="40" as="geometry" />
        </mxCell>
        <mxCell id="Rp4w2FqZeHLNgpuGs2a2-207" value="CONTENT" style="ellipse;whiteSpace=wrap;html=1;align=center;" parent="1" vertex="1">
          <mxGeometry x="1600" y="260" width="100" height="40" as="geometry" />
        </mxCell>
        <mxCell id="Rp4w2FqZeHLNgpuGs2a2-208" value="ID" style="ellipse;whiteSpace=wrap;html=1;align=center;fontStyle=4;" parent="1" vertex="1">
          <mxGeometry x="1590" y="180" width="100" height="40" as="geometry" />
        </mxCell>
        <mxCell id="Rp4w2FqZeHLNgpuGs2a2-210" value="" style="endArrow=none;html=1;rounded=0;entryX=0;entryY=0.5;entryDx=0;entryDy=0;exitX=0.5;exitY=1;exitDx=0;exitDy=0;" parent="1" source="Rp4w2FqZeHLNgpuGs2a2-199" target="Rp4w2FqZeHLNgpuGs2a2-206" edge="1">
          <mxGeometry relative="1" as="geometry">
            <mxPoint x="1000" y="460" as="sourcePoint" />
            <mxPoint x="1160" y="460" as="targetPoint" />
          </mxGeometry>
        </mxCell>
        <mxCell id="Rp4w2FqZeHLNgpuGs2a2-211" value="" style="endArrow=none;html=1;rounded=0;entryX=0;entryY=0.5;entryDx=0;entryDy=0;exitX=1;exitY=0.5;exitDx=0;exitDy=0;" parent="1" source="Rp4w2FqZeHLNgpuGs2a2-199" target="Rp4w2FqZeHLNgpuGs2a2-207" edge="1">
          <mxGeometry relative="1" as="geometry">
            <mxPoint x="1000" y="460" as="sourcePoint" />
            <mxPoint x="1160" y="460" as="targetPoint" />
          </mxGeometry>
        </mxCell>
        <mxCell id="Rp4w2FqZeHLNgpuGs2a2-212" value="" style="endArrow=none;html=1;rounded=0;entryX=0;entryY=0.5;entryDx=0;entryDy=0;exitX=0.5;exitY=0;exitDx=0;exitDy=0;" parent="1" source="Rp4w2FqZeHLNgpuGs2a2-199" target="Rp4w2FqZeHLNgpuGs2a2-208" edge="1">
          <mxGeometry relative="1" as="geometry">
            <mxPoint x="1000" y="460" as="sourcePoint" />
            <mxPoint x="1160" y="460" as="targetPoint" />
          </mxGeometry>
        </mxCell>
        <mxCell id="Rp4w2FqZeHLNgpuGs2a2-213" value="" style="shape=link;html=1;rounded=0;entryX=0;entryY=0.5;entryDx=0;entryDy=0;exitX=1;exitY=0.5;exitDx=0;exitDy=0;" parent="1" source="Rp4w2FqZeHLNgpuGs2a2-201" target="Rp4w2FqZeHLNgpuGs2a2-199" edge="1">
          <mxGeometry relative="1" as="geometry">
            <mxPoint x="1000" y="460" as="sourcePoint" />
            <mxPoint x="1160" y="460" as="targetPoint" />
          </mxGeometry>
        </mxCell>
        <mxCell id="Rp4w2FqZeHLNgpuGs2a2-214" value="M" style="resizable=0;html=1;whiteSpace=wrap;align=right;verticalAlign=bottom;" parent="Rp4w2FqZeHLNgpuGs2a2-213" connectable="0" vertex="1">
          <mxGeometry x="1" relative="1" as="geometry" />
        </mxCell>
        <mxCell id="Rp4w2FqZeHLNgpuGs2a2-219" value="1" style="text;strokeColor=none;fillColor=none;spacingLeft=4;spacingRight=4;overflow=hidden;rotatable=0;points=[[0,0.5],[1,0.5]];portConstraint=eastwest;fontSize=12;whiteSpace=wrap;html=1;" parent="1" vertex="1">
          <mxGeometry x="1250" y="250" width="40" height="30" as="geometry" />
        </mxCell>
        <mxCell id="Rp4w2FqZeHLNgpuGs2a2-221" value="&lt;span style=&quot;border-bottom: 1px dotted&quot;&gt;USER-ID&lt;/span&gt;" style="ellipse;whiteSpace=wrap;html=1;align=center;" parent="1" vertex="1">
          <mxGeometry x="50" y="-70" width="100" height="40" as="geometry" />
        </mxCell>
        <mxCell id="Rp4w2FqZeHLNgpuGs2a2-222" value="&lt;span style=&quot;border-bottom: 1px dotted&quot;&gt;USER-ID&lt;/span&gt;" style="ellipse;whiteSpace=wrap;html=1;align=center;" parent="1" vertex="1">
          <mxGeometry x="220" y="330" width="100" height="40" as="geometry" />
        </mxCell>
        <mxCell id="Rp4w2FqZeHLNgpuGs2a2-223" value="&lt;span style=&quot;border-bottom: 1px dotted&quot;&gt;USER-ID&lt;/span&gt;" style="ellipse;whiteSpace=wrap;html=1;align=center;" parent="1" vertex="1">
          <mxGeometry x="350" y="500" width="100" height="40" as="geometry" />
        </mxCell>
        <mxCell id="Rp4w2FqZeHLNgpuGs2a2-224" value="" style="endArrow=none;html=1;rounded=0;exitX=1;exitY=0.5;exitDx=0;exitDy=0;entryX=0;entryY=0;entryDx=0;entryDy=0;" parent="1" source="Rp4w2FqZeHLNgpuGs2a2-221" target="Rp4w2FqZeHLNgpuGs2a2-4" edge="1">
          <mxGeometry relative="1" as="geometry">
            <mxPoint x="250" y="-10" as="sourcePoint" />
            <mxPoint x="410" y="-10" as="targetPoint" />
          </mxGeometry>
        </mxCell>
        <mxCell id="Rp4w2FqZeHLNgpuGs2a2-225" value="" style="endArrow=none;html=1;rounded=0;entryX=0;entryY=1;entryDx=0;entryDy=0;exitX=0.5;exitY=0;exitDx=0;exitDy=0;" parent="1" source="Rp4w2FqZeHLNgpuGs2a2-222" target="Rp4w2FqZeHLNgpuGs2a2-3" edge="1">
          <mxGeometry relative="1" as="geometry">
            <mxPoint x="250" y="340" as="sourcePoint" />
            <mxPoint x="410" y="340" as="targetPoint" />
          </mxGeometry>
        </mxCell>
        <mxCell id="Rp4w2FqZeHLNgpuGs2a2-226" value="" style="endArrow=none;html=1;rounded=0;entryX=0;entryY=1;entryDx=0;entryDy=0;exitX=0.75;exitY=0;exitDx=0;exitDy=0;" parent="1" source="Rp4w2FqZeHLNgpuGs2a2-2" target="Rp4w2FqZeHLNgpuGs2a2-223" edge="1">
          <mxGeometry relative="1" as="geometry">
            <mxPoint x="250" y="340" as="sourcePoint" />
            <mxPoint x="410" y="340" as="targetPoint" />
          </mxGeometry>
        </mxCell>
        <mxCell id="Rp4w2FqZeHLNgpuGs2a2-227" value="" style="shape=link;html=1;rounded=0;entryX=0;entryY=1;entryDx=0;entryDy=0;exitX=1;exitY=0;exitDx=0;exitDy=0;" parent="1" source="Rp4w2FqZeHLNgpuGs2a2-203" target="Rp4w2FqZeHLNgpuGs2a2-97" edge="1">
          <mxGeometry relative="1" as="geometry">
            <mxPoint x="740" y="400" as="sourcePoint" />
            <mxPoint x="900" y="400" as="targetPoint" />
          </mxGeometry>
        </mxCell>
        <mxCell id="Rp4w2FqZeHLNgpuGs2a2-228" value="1" style="resizable=0;html=1;whiteSpace=wrap;align=right;verticalAlign=bottom;" parent="Rp4w2FqZeHLNgpuGs2a2-227" connectable="0" vertex="1">
          <mxGeometry x="1" relative="1" as="geometry" />
        </mxCell>
        <mxCell id="Rp4w2FqZeHLNgpuGs2a2-229" value="" style="shape=link;html=1;rounded=0;entryX=1;entryY=0;entryDx=0;entryDy=0;exitX=0;exitY=1;exitDx=0;exitDy=0;" parent="1" source="Rp4w2FqZeHLNgpuGs2a2-203" target="Rp4w2FqZeHLNgpuGs2a2-95" edge="1">
          <mxGeometry relative="1" as="geometry">
            <mxPoint x="740" y="400" as="sourcePoint" />
            <mxPoint x="900" y="400" as="targetPoint" />
          </mxGeometry>
        </mxCell>
        <mxCell id="Rp4w2FqZeHLNgpuGs2a2-230" value="1" style="resizable=0;html=1;whiteSpace=wrap;align=right;verticalAlign=bottom;" parent="Rp4w2FqZeHLNgpuGs2a2-229" connectable="0" vertex="1">
          <mxGeometry x="1" relative="1" as="geometry" />
        </mxCell>
        <mxCell id="Rp4w2FqZeHLNgpuGs2a2-231" value="" style="shape=link;html=1;rounded=0;entryX=0;entryY=0.5;entryDx=0;entryDy=0;exitX=1;exitY=0.5;exitDx=0;exitDy=0;" parent="1" source="Rp4w2FqZeHLNgpuGs2a2-204" target="Rp4w2FqZeHLNgpuGs2a2-97" edge="1">
          <mxGeometry relative="1" as="geometry">
            <mxPoint x="740" y="400" as="sourcePoint" />
            <mxPoint x="900" y="400" as="targetPoint" />
          </mxGeometry>
        </mxCell>
        <mxCell id="Rp4w2FqZeHLNgpuGs2a2-232" value="1" style="resizable=0;html=1;whiteSpace=wrap;align=right;verticalAlign=bottom;" parent="Rp4w2FqZeHLNgpuGs2a2-231" connectable="0" vertex="1">
          <mxGeometry x="1" relative="1" as="geometry" />
        </mxCell>
        <mxCell id="Rp4w2FqZeHLNgpuGs2a2-233" value="" style="shape=link;html=1;rounded=0;entryX=0;entryY=0;entryDx=0;entryDy=0;exitX=1;exitY=1;exitDx=0;exitDy=0;" parent="1" source="Rp4w2FqZeHLNgpuGs2a2-205" target="Rp4w2FqZeHLNgpuGs2a2-97" edge="1">
          <mxGeometry relative="1" as="geometry">
            <mxPoint x="740" y="400" as="sourcePoint" />
            <mxPoint x="900" y="400" as="targetPoint" />
          </mxGeometry>
        </mxCell>
        <mxCell id="Rp4w2FqZeHLNgpuGs2a2-234" value="1" style="resizable=0;html=1;whiteSpace=wrap;align=right;verticalAlign=bottom;" parent="Rp4w2FqZeHLNgpuGs2a2-233" connectable="0" vertex="1">
          <mxGeometry x="1" relative="1" as="geometry">
            <mxPoint x="10" y="-5" as="offset" />
          </mxGeometry>
        </mxCell>
        <mxCell id="Rp4w2FqZeHLNgpuGs2a2-235" value="" style="shape=link;html=1;rounded=0;entryX=1;entryY=0.5;entryDx=0;entryDy=0;exitX=0;exitY=0.5;exitDx=0;exitDy=0;" parent="1" source="Rp4w2FqZeHLNgpuGs2a2-204" target="Rp4w2FqZeHLNgpuGs2a2-96" edge="1">
          <mxGeometry relative="1" as="geometry">
            <mxPoint x="740" y="400" as="sourcePoint" />
            <mxPoint x="900" y="400" as="targetPoint" />
          </mxGeometry>
        </mxCell>
        <mxCell id="Rp4w2FqZeHLNgpuGs2a2-236" value="1" style="resizable=0;html=1;whiteSpace=wrap;align=right;verticalAlign=bottom;" parent="Rp4w2FqZeHLNgpuGs2a2-235" connectable="0" vertex="1">
          <mxGeometry x="1" relative="1" as="geometry">
            <mxPoint x="10" as="offset" />
          </mxGeometry>
        </mxCell>
        <mxCell id="Rp4w2FqZeHLNgpuGs2a2-237" value="" style="shape=link;html=1;rounded=0;entryX=1;entryY=0.25;entryDx=0;entryDy=0;exitX=0;exitY=0;exitDx=0;exitDy=0;" parent="1" source="Rp4w2FqZeHLNgpuGs2a2-205" target="Rp4w2FqZeHLNgpuGs2a2-94" edge="1">
          <mxGeometry relative="1" as="geometry">
            <mxPoint x="740" y="400" as="sourcePoint" />
            <mxPoint x="900" y="400" as="targetPoint" />
          </mxGeometry>
        </mxCell>
        <mxCell id="Rp4w2FqZeHLNgpuGs2a2-238" value="1" style="resizable=0;html=1;whiteSpace=wrap;align=right;verticalAlign=bottom;" parent="Rp4w2FqZeHLNgpuGs2a2-237" connectable="0" vertex="1">
          <mxGeometry x="1" relative="1" as="geometry">
            <mxPoint x="15" y="5" as="offset" />
          </mxGeometry>
        </mxCell>
        <mxCell id="qYW3U_I98wiMoePYOLth-20" value="&lt;span style=&quot;border-bottom: 1px dotted&quot;&gt;Attribute&lt;/span&gt;" style="ellipse;whiteSpace=wrap;html=1;align=center;" vertex="1" parent="1">
          <mxGeometry x="1120" y="130" width="100" height="40" as="geometry" />
        </mxCell>
        <mxCell id="qYW3U_I98wiMoePYOLth-21" value="&lt;span style=&quot;border-bottom: 1px dotted&quot;&gt;Attribute&lt;/span&gt;" style="ellipse;whiteSpace=wrap;html=1;align=center;" vertex="1" parent="1">
          <mxGeometry x="1220" y="130" width="100" height="40" as="geometry" />
        </mxCell>
        <mxCell id="qYW3U_I98wiMoePYOLth-22" value="&lt;span style=&quot;border-bottom: 1px dotted&quot;&gt;Attribute&lt;/span&gt;" style="ellipse;whiteSpace=wrap;html=1;align=center;" vertex="1" parent="1">
          <mxGeometry x="1320" y="130" width="100" height="40" as="geometry" />
        </mxCell>
        <mxCell id="qYW3U_I98wiMoePYOLth-23" value="Attribute" style="ellipse;whiteSpace=wrap;html=1;align=center;fontStyle=4;" vertex="1" parent="1">
          <mxGeometry x="1060" y="160" width="100" height="40" as="geometry" />
        </mxCell>
        <mxCell id="qYW3U_I98wiMoePYOLth-24" value="" style="endArrow=none;html=1;rounded=0;exitX=0.5;exitY=1;exitDx=0;exitDy=0;entryX=0.25;entryY=0;entryDx=0;entryDy=0;" edge="1" parent="1" source="qYW3U_I98wiMoePYOLth-23" target="Rp4w2FqZeHLNgpuGs2a2-97">
          <mxGeometry relative="1" as="geometry">
            <mxPoint x="1060" y="310" as="sourcePoint" />
            <mxPoint x="1220" y="310" as="targetPoint" />
          </mxGeometry>
        </mxCell>
        <mxCell id="qYW3U_I98wiMoePYOLth-25" value="" style="endArrow=none;html=1;rounded=0;exitX=0.5;exitY=1;exitDx=0;exitDy=0;entryX=0.5;entryY=0;entryDx=0;entryDy=0;" edge="1" parent="1" source="qYW3U_I98wiMoePYOLth-20" target="Rp4w2FqZeHLNgpuGs2a2-97">
          <mxGeometry relative="1" as="geometry">
            <mxPoint x="1060" y="310" as="sourcePoint" />
            <mxPoint x="1220" y="310" as="targetPoint" />
          </mxGeometry>
        </mxCell>
        <mxCell id="qYW3U_I98wiMoePYOLth-26" value="" style="endArrow=none;html=1;rounded=0;entryX=0;entryY=1;entryDx=0;entryDy=0;exitX=0.75;exitY=0;exitDx=0;exitDy=0;" edge="1" parent="1" source="Rp4w2FqZeHLNgpuGs2a2-97" target="qYW3U_I98wiMoePYOLth-21">
          <mxGeometry relative="1" as="geometry">
            <mxPoint x="1060" y="310" as="sourcePoint" />
            <mxPoint x="1260" y="210" as="targetPoint" />
          </mxGeometry>
        </mxCell>
        <mxCell id="qYW3U_I98wiMoePYOLth-27" value="" style="endArrow=none;html=1;rounded=0;entryX=0;entryY=1;entryDx=0;entryDy=0;exitX=0.75;exitY=0;exitDx=0;exitDy=0;" edge="1" parent="1" source="Rp4w2FqZeHLNgpuGs2a2-97" target="qYW3U_I98wiMoePYOLth-22">
          <mxGeometry relative="1" as="geometry">
            <mxPoint x="1060" y="310" as="sourcePoint" />
            <mxPoint x="1220" y="310" as="targetPoint" />
          </mxGeometry>
        </mxCell>
        <mxCell id="qYW3U_I98wiMoePYOLth-28" value="TIME" style="ellipse;whiteSpace=wrap;html=1;align=center;" vertex="1" parent="1">
          <mxGeometry x="1125" y="340" width="100" height="40" as="geometry" />
        </mxCell>
        <mxCell id="qYW3U_I98wiMoePYOLth-29" value="DATE" style="ellipse;whiteSpace=wrap;html=1;align=center;" vertex="1" parent="1">
          <mxGeometry x="1225" y="340" width="100" height="40" as="geometry" />
        </mxCell>
        <mxCell id="qYW3U_I98wiMoePYOLth-30" value="" style="endArrow=none;html=1;rounded=0;entryX=0.5;entryY=0;entryDx=0;entryDy=0;exitX=0.5;exitY=1;exitDx=0;exitDy=0;" edge="1" parent="1" source="Rp4w2FqZeHLNgpuGs2a2-97" target="qYW3U_I98wiMoePYOLth-28">
          <mxGeometry relative="1" as="geometry">
            <mxPoint x="1060" y="310" as="sourcePoint" />
            <mxPoint x="1220" y="310" as="targetPoint" />
          </mxGeometry>
        </mxCell>
        <mxCell id="qYW3U_I98wiMoePYOLth-31" value="" style="endArrow=none;html=1;rounded=0;entryX=0.5;entryY=0;entryDx=0;entryDy=0;exitX=1;exitY=1;exitDx=0;exitDy=0;" edge="1" parent="1" source="Rp4w2FqZeHLNgpuGs2a2-97" target="qYW3U_I98wiMoePYOLth-29">
          <mxGeometry relative="1" as="geometry">
            <mxPoint x="1060" y="310" as="sourcePoint" />
            <mxPoint x="1220" y="310" as="targetPoint" />
          </mxGeometry>
        </mxCell>
        <mxCell id="qYW3U_I98wiMoePYOLth-33" value="ACCESS" style="shape=rhombus;perimeter=rhombusPerimeter;whiteSpace=wrap;html=1;align=center;" vertex="1" parent="1">
          <mxGeometry x="610" y="440" width="120" height="60" as="geometry" />
        </mxCell>
        <mxCell id="qYW3U_I98wiMoePYOLth-34" value="ACCESS" style="shape=rhombus;perimeter=rhombusPerimeter;whiteSpace=wrap;html=1;align=center;" vertex="1" parent="1">
          <mxGeometry x="610" y="150" width="120" height="60" as="geometry" />
        </mxCell>
        <mxCell id="qYW3U_I98wiMoePYOLth-35" value="" style="endArrow=none;html=1;rounded=0;entryX=0;entryY=1;entryDx=0;entryDy=0;exitX=1;exitY=0;exitDx=0;exitDy=0;" edge="1" parent="1" source="Rp4w2FqZeHLNgpuGs2a2-3" target="qYW3U_I98wiMoePYOLth-34">
          <mxGeometry relative="1" as="geometry">
            <mxPoint x="410" y="310" as="sourcePoint" />
            <mxPoint x="570" y="310" as="targetPoint" />
          </mxGeometry>
        </mxCell>
        <mxCell id="qYW3U_I98wiMoePYOLth-36" value="" style="endArrow=none;html=1;rounded=0;entryX=0;entryY=0;entryDx=0;entryDy=0;exitX=1;exitY=1;exitDx=0;exitDy=0;" edge="1" parent="1" source="Rp4w2FqZeHLNgpuGs2a2-4" target="qYW3U_I98wiMoePYOLth-34">
          <mxGeometry relative="1" as="geometry">
            <mxPoint x="410" y="310" as="sourcePoint" />
            <mxPoint x="570" y="310" as="targetPoint" />
          </mxGeometry>
        </mxCell>
        <mxCell id="qYW3U_I98wiMoePYOLth-37" value="" style="endArrow=none;html=1;rounded=0;entryX=1;entryY=0.5;entryDx=0;entryDy=0;exitX=0;exitY=0.25;exitDx=0;exitDy=0;" edge="1" parent="1" source="Rp4w2FqZeHLNgpuGs2a2-97" target="qYW3U_I98wiMoePYOLth-34">
          <mxGeometry relative="1" as="geometry">
            <mxPoint x="410" y="310" as="sourcePoint" />
            <mxPoint x="570" y="310" as="targetPoint" />
          </mxGeometry>
        </mxCell>
        <mxCell id="qYW3U_I98wiMoePYOLth-38" value="" style="endArrow=none;html=1;rounded=0;exitX=1;exitY=0;exitDx=0;exitDy=0;entryX=0;entryY=0.5;entryDx=0;entryDy=0;" edge="1" parent="1" source="Rp4w2FqZeHLNgpuGs2a2-2" target="qYW3U_I98wiMoePYOLth-33">
          <mxGeometry relative="1" as="geometry">
            <mxPoint x="590" y="310" as="sourcePoint" />
            <mxPoint x="750" y="310" as="targetPoint" />
          </mxGeometry>
        </mxCell>
        <mxCell id="qYW3U_I98wiMoePYOLth-39" value="" style="endArrow=none;html=1;rounded=0;entryX=0;entryY=0.75;entryDx=0;entryDy=0;exitX=1;exitY=0;exitDx=0;exitDy=0;" edge="1" parent="1" source="qYW3U_I98wiMoePYOLth-33" target="Rp4w2FqZeHLNgpuGs2a2-97">
          <mxGeometry relative="1" as="geometry">
            <mxPoint x="590" y="310" as="sourcePoint" />
            <mxPoint x="750" y="310" as="targetPoint" />
          </mxGeometry>
        </mxCell>
        <mxCell id="qYW3U_I98wiMoePYOLth-45" value="1" style="text;strokeColor=none;fillColor=none;spacingLeft=4;spacingRight=4;overflow=hidden;rotatable=0;points=[[0,0.5],[1,0.5]];portConstraint=eastwest;fontSize=12;whiteSpace=wrap;html=1;" vertex="1" parent="1">
          <mxGeometry x="400" y="540" width="40" height="30" as="geometry" />
        </mxCell>
        <mxCell id="qYW3U_I98wiMoePYOLth-46" value="1" style="text;strokeColor=none;fillColor=none;spacingLeft=4;spacingRight=4;overflow=hidden;rotatable=0;points=[[0,0.5],[1,0.5]];portConstraint=eastwest;fontSize=12;whiteSpace=wrap;html=1;" vertex="1" parent="1">
          <mxGeometry x="385" y="60" width="40" height="30" as="geometry" />
        </mxCell>
        <mxCell id="qYW3U_I98wiMoePYOLth-47" value="1" style="text;strokeColor=none;fillColor=none;spacingLeft=4;spacingRight=4;overflow=hidden;rotatable=0;points=[[0,0.5],[1,0.5]];portConstraint=eastwest;fontSize=12;whiteSpace=wrap;html=1;" vertex="1" parent="1">
          <mxGeometry x="402.5" y="235" width="40" height="30" as="geometry" />
        </mxCell>
        <mxCell id="qYW3U_I98wiMoePYOLth-49" value="M" style="text;strokeColor=none;fillColor=none;spacingLeft=4;spacingRight=4;overflow=hidden;rotatable=0;points=[[0,0.5],[1,0.5]];portConstraint=eastwest;fontSize=12;whiteSpace=wrap;html=1;" vertex="1" parent="1">
          <mxGeometry x="1085" y="280" width="40" height="30" as="geometry" />
        </mxCell>
        <mxCell id="qYW3U_I98wiMoePYOLth-50" value="M" style="text;strokeColor=none;fillColor=none;spacingLeft=4;spacingRight=4;overflow=hidden;rotatable=0;points=[[0,0.5],[1,0.5]];portConstraint=eastwest;fontSize=12;whiteSpace=wrap;html=1;" vertex="1" parent="1">
          <mxGeometry x="1085" y="240" width="40" height="30" as="geometry" />
        </mxCell>
      </root>
    </mxGraphModel>
  </diagram>
</mxfile>
